<?xml version="1.0" encoding="UTF-8" standalone="no"?>
<svg
   xmlns:dc="http://purl.org/dc/elements/1.1/"
   xmlns:cc="http://creativecommons.org/ns#"
   xmlns:rdf="http://www.w3.org/1999/02/22-rdf-syntax-ns#"
   xmlns:svg="http://www.w3.org/2000/svg"
   xmlns="http://www.w3.org/2000/svg"
   viewBox="0 0 1333.3333 1066.6667"
   height="1066.6667"
   width="1333.3333"
   xml:space="preserve"
   id="svg2"
   version="1.1"><metadata
     id="metadata8"><rdf:RDF><cc:Work
         rdf:about=""><dc:format>image/svg+xml</dc:format><dc:type
           rdf:resource="http://purl.org/dc/dcmitype/StillImage" /></cc:Work></rdf:RDF></metadata><defs
     id="defs6" /><g
     transform="matrix(1.3333333,0,0,-1.3333333,0,1066.6667)"
     id="g10"><g
       transform="scale(0.1)"
       id="g12"><path
         id="path14"
         style="fill:#211c1d;fill-opacity:1;fill-rule:nonzero;stroke:none"
         d="m 5912.91,6891.17 c 0,0 290.16,-404.46 -374.09,-865.75 -839.37,-582.91 -2045.41,-1354.97 -1186.4,-2297.97 0,0 -470.28,555.79 288.59,1282.59 758.86,726.8 1731.49,1179.27 1271.9,1881.13" /><path
         id="path16"
         style="fill:none;stroke:#211c1d;stroke-width:10;stroke-linecap:butt;stroke-linejoin:miter;stroke-miterlimit:10;stroke-dasharray:none;stroke-opacity:1"
         d="m 5912.91,6891.17 c 0,0 290.16,-404.46 -374.09,-865.75 -839.37,-582.91 -2045.41,-1354.97 -1186.4,-2297.97 0,0 -470.28,555.79 288.59,1282.59 758.86,726.8 1731.49,1179.27 1271.9,1881.13 z" /><path
         id="path18"
         style="fill:#211c1d;fill-opacity:1;fill-rule:nonzero;stroke:none"
         d="m 6031.48,6303.32 c 0,0 37.3,-318.7 -751.84,-917.24 -664.77,-504.2 -1322.68,-1427.05 -496.12,-1925.84 0,0 -402.72,360.77 14.25,1033.2 505.91,815.87 1328.9,1195.3 1233.71,1809.88" /><path
         id="path20"
         style="fill:none;stroke:#211c1d;stroke-width:10;stroke-linecap:butt;stroke-linejoin:miter;stroke-miterlimit:10;stroke-dasharray:none;stroke-opacity:1"
         d="m 6031.48,6303.32 c 0,0 37.3,-318.7 -751.84,-917.24 -664.77,-504.2 -1322.68,-1427.05 -496.12,-1925.84 0,0 -402.72,360.77 14.25,1033.2 505.91,815.87 1328.9,1195.3 1233.71,1809.88 z" /><path
         id="path22"
         style="fill:#211c1d;fill-opacity:1;fill-rule:nonzero;stroke:none"
         d="m 4087.09,1108.83 c 0,0 -290.16,404.46 374.09,865.75 839.37,582.91 2045.41,1354.97 1186.4,2297.97 0,0 470.28,-555.79 -288.59,-1282.59 C 4600.13,2263.16 3627.5,1810.69 4087.09,1108.83" /><path
         id="path24"
         style="fill:none;stroke:#211c1d;stroke-width:10;stroke-linecap:butt;stroke-linejoin:miter;stroke-miterlimit:10;stroke-dasharray:none;stroke-opacity:1"
         d="m 4087.09,1108.83 c 0,0 -290.16,404.46 374.09,865.75 839.37,582.91 2045.41,1354.97 1186.4,2297.97 0,0 470.28,-555.79 -288.59,-1282.59 C 4600.13,2263.16 3627.5,1810.69 4087.09,1108.83 Z" /><path
         id="path26"
         style="fill:#211c1d;fill-opacity:1;fill-rule:nonzero;stroke:none"
         d="m 3968.52,1696.68 c 0,0 -37.3,318.7 751.84,917.24 664.77,504.2 1322.68,1427.05 496.12,1925.84 0,0 402.72,-360.77 -14.25,-1033.2 -505.91,-815.87 -1328.9,-1195.3 -1233.71,-1809.88" /><path
         id="path28"
         style="fill:none;stroke:#211c1d;stroke-width:10;stroke-linecap:butt;stroke-linejoin:miter;stroke-miterlimit:10;stroke-dasharray:none;stroke-opacity:1"
         d="m 3968.52,1696.68 c 0,0 -37.3,318.7 751.84,917.24 664.77,504.2 1322.68,1427.05 496.12,1925.84 0,0 402.72,-360.77 -14.25,-1033.2 -505.91,-815.87 -1328.9,-1195.3 -1233.71,-1809.88 z" /></g></g></svg>